<?xml version="1.0" encoding="UTF-8"?>
<svg version="1.1" xmlns="http://www.w3.org/2000/svg" width="220" height="154">
<path d="M0 0 C72.6 0 145.2 0 220 0 C220 50.82 220 101.64 220 154 C147.4 154 74.8 154 0 154 C0 103.18 0 52.36 0 0 Z " fill="#FEFEFE" transform="translate(0,0)"/>
<path d="M0 0 C4.60398867 -0.12532845 9.20694546 -0.21513346 13.81225586 -0.2746582 C15.37265354 -0.29951807 16.93293838 -0.33341932 18.49291992 -0.37719727 C32.41418271 -0.75755964 44.27338566 1.35063112 55 11 C55.66515625 11.57363281 56.3303125 12.14726563 57.015625 12.73828125 C67.73826359 22.62193476 71.88800529 35.44397348 76 49 C78.19144299 45.71283552 79.00075913 42.90653746 80.125 39.125 C83.3135619 29.03034763 88.26657542 20.35469447 96 13 C96.89912109 12.08734375 96.89912109 12.08734375 97.81640625 11.15625 C106.34285979 3.06851779 116.70199836 -0.14525927 128.26953125 -0.09765625 C128.95053391 -0.0962413 129.63153656 -0.09482635 130.33317566 -0.09336853 C132.49299647 -0.08780298 134.65271089 -0.07525703 136.8125 -0.0625 C138.28320162 -0.05748054 139.75390488 -0.05291841 141.22460938 -0.04882812 C144.8164404 -0.03784488 148.4082098 -0.02060422 152 0 C151.44705334 3.90032454 150.64732719 7.28222238 149.109375 10.90625 C148.73200195 11.80819092 148.35462891 12.71013184 147.96582031 13.6394043 C147.36398926 15.05539917 147.36398926 15.05539917 146.75 16.5 C144.09478396 22.85086247 141.50269273 29.18212773 139.25 35.6875 C137.53164041 40.64180824 135.57164919 45.37966744 133.30859375 50.109375 C131.39021825 54.34698057 129.71408298 58.67647952 128 63 C126.3922463 67.02800265 124.76367435 71.04698686 123.125 75.0625 C122.51205078 76.59874023 122.51205078 76.59874023 121.88671875 78.16601562 C118.3013324 86.90609295 114.08071945 94.61008245 107 101 C106.47664063 101.49242187 105.95328125 101.98484375 105.4140625 102.4921875 C96.1122591 110.95219873 86.01863592 113.5156733 73.59765625 113.31640625 C60.2093481 112.13893289 47.83336663 104.92670801 39 95 C33.5565386 85.81731075 29.72805084 75.73821163 25.875 65.8125 C22.78719535 57.90536483 19.63296401 50.06666326 16.06298828 42.36157227 C14.69318287 39.31836425 13.57220652 36.22167991 12.5 33.0625 C10.24248153 26.59329864 7.69325129 20.29806457 5 14 C4.05899789 11.79315669 3.12142389 9.58484808 2.1875 7.375 C1.76855469 6.39273438 1.34960938 5.41046875 0.91796875 4.3984375 C0 2 0 2 0 0 Z " fill="#75D3CD" transform="translate(36,31)"/>
<path d="M0 0 C4.60398867 -0.12532845 9.20694546 -0.21513346 13.81225586 -0.2746582 C15.37265354 -0.29951807 16.93293838 -0.33341932 18.49291992 -0.37719727 C32.41418271 -0.75755964 44.27338566 1.35063112 55 11 C55.66515625 11.57363281 56.3303125 12.14726563 57.015625 12.73828125 C65.32413028 20.39669356 69.83409046 29.76935014 73.4375 40.3125 C73.6967627 41.06515137 73.95602539 41.81780273 74.22314453 42.59326172 C77.34164347 52.28311306 75.39338186 59.24990562 70.97998047 68.15380859 C65.97542291 77.58192625 59.19846598 87.77658947 49 92 C46.81640625 92.3359375 46.81640625 92.3359375 44.5625 92.375 C43.82128906 92.40335937 43.08007812 92.43171875 42.31640625 92.4609375 C38.94994266 91.79105099 37.47922423 90.38068404 35 88 C33.51195476 85.40905497 32.46617317 82.69134573 31.40625 79.90234375 C31.09224243 79.11283829 30.77823486 78.32333282 30.45471191 77.50990295 C29.4559169 74.99098724 28.47733293 72.46481057 27.5 69.9375 C26.52107601 67.44329836 25.53798555 64.95077606 24.55383301 62.45863342 C23.91692416 60.84574174 23.28173365 59.23217038 22.64831543 57.61790466 C20.5929655 52.40468754 18.37497103 47.2959477 16.00585938 42.21655273 C14.64842414 39.22525311 13.55525623 36.17173712 12.5 33.0625 C10.24248153 26.59329864 7.69325129 20.29806457 5 14 C4.05899789 11.79315669 3.12142389 9.58484808 2.1875 7.375 C1.76855469 6.39273438 1.34960938 5.41046875 0.91796875 4.3984375 C0 2 0 2 0 0 Z " fill="#8964AA" transform="translate(36,31)"/>
</svg>
